<svg preserveAspectRatio="xMidYMid meet" width="100%" height="100%" overflow="visible" style="display: block;" viewBox="0 0 28.8 24" fill="none" xmlns="http://www.w3.org/2000/svg">
<g id="Icon">
<path d="M19.2 4.8C19.2 7.45097 17.051 9.6 14.4 9.6C11.749 9.6 9.6 7.45097 9.6 4.8C9.6 2.14903 11.749 0 14.4 0C17.051 0 19.2 2.14903 19.2 4.8Z" fill="var(--fill-0, white)"/>
<path d="M27.2 8C27.2 9.76731 25.7673 11.2 24 11.2C22.2327 11.2 20.8 9.76731 20.8 8C20.8 6.23269 22.2327 4.8 24 4.8C25.7673 4.8 27.2 6.23269 27.2 8Z" fill="var(--fill-0, white)"/>
<path d="M20.8 19.2C20.8 15.6654 17.9346 12.8 14.4 12.8C10.8654 12.8 8 15.6654 8 19.2V24H20.8V19.2Z" fill="white"/>
<path d="M8 8C8 9.76731 6.56731 11.2 4.8 11.2C3.03269 11.2 1.6 9.76731 1.6 8C1.6 6.23269 3.03269 4.8 4.8 4.8C6.56731 4.8 8 6.23269 8 8Z" fill="var(--fill-0, white)"/>
<path d="M24 24V19.2C24 17.5134 23.565 15.9283 22.8012 14.5509C23.1844 14.4524 23.5861 14.4 24 14.4C26.651 14.4 28.8 16.549 28.8 19.2V24H24Z" fill="var(--fill-0, white)"/>
<path d="M5.99882 14.5509C5.23496 15.9283 4.8 17.5134 4.8 19.2V24H0V19.2C0 16.549 2.14903 14.4 4.8 14.4C5.21394 14.4 5.61563 14.4524 5.99882 14.5509Z" fill="var(--fill-0, white)"/>
</g>
</svg>
